# xmcd
#
# Track frame offsets:
#	150
#	11000
#	20904
#	33932
#	45552
#	54555
#	65939
#	75555
#	85163
#	99030
#	109745
#	118895
#	128617
#	140532
#	149267
#	156987
#	168601
#	181021
#	192276
#	204100
#	214305
#	228220
#	238458
#	248425
#	258409
#	270632
#
# Disc length: 3772 seconds
#
# Revision: 0
# Processed by: cddbd v1.4PL0 Copyright (c) Steve Scherf et al.
# Submitted via: audiograbber 1.81.03
#
DISCID=6c0eba1a
DTITLE=Various Artist - Sun 50 Years Disc 7
DYEAR=1900
DGENRE=Pop
TTITLE0=Brad Suggs - 706 Union
TTITLE1=Mack Owen - Walkin' And Talkin'
TTITLE2=Billy Adams - Reconsider Baby
TTITLE3=George and Louis - The Return Of Jerry Lee
TTITLE4=Eddie Bush - Hey Baby Doll
TTITLE5=Vernon Taylor - Sweet And Easy To Love
TTITLE6=Memphis Belles Featuring Shirley - Snow Job
TTITLE7=Bill Johnson - You Better Dig It
TTITLE8=Anita Wood - I'll Wait Forever
TTITLE9=Thomas Wayne - I've Got It Made
TTITLE10=Ray B Anthony - Alice Blue Gown
TTITLE11=Roland Janes - Rolando
TTITLE12=Curtis Hoback - Apron Strings
TTITLE13=Don Hinton - Honey Bee
TTITLE14=Harold Dorman - Uncle Jonah's Place
TTITLE15=Ira Jay II - You Don't Love Me Anymore
TTITLE16=Danny Stewart - Somewhere Along The Line
TTITLE17=Wade Cagle and Escorts - Groovy Train
TTITLE18=Jeb Stuart - I Betcha' Gonna Like It
TTITLE19=Bobby Wood - Everybody's Searching
TTITLE20=Charlie Rich - Sittin' And Thinkin'
TTITLE21=Quintones - Times Sho' Gettin' Ruff
TTITLE22=Randy and Radiants - Peek-A-Boo
TTITLE23=Jesters - Night Train From Chicago
TTITLE24=Climates - Breaking Up Again
TTITLE25=Load Of Mischief - Back In My Arms Again
EXTD=
EXTT0=
EXTT1=
EXTT2=
EXTT3=
EXTT4=
EXTT5=
EXTT6=
EXTT7=
EXTT8=
EXTT9=
EXTT10=
EXTT11=
EXTT12=
EXTT13=
EXTT14=
EXTT15=
EXTT16=
EXTT17=
EXTT18=
EXTT19=
EXTT20=
EXTT21=
EXTT22=
EXTT23=
EXTT24=
EXTT25=
PLAYORDER=
